<svg width="15" height="15" viewBox="0 0 15 15" fill="none" xmlns="http://www.w3.org/2000/svg">
<g clip-path="url(#clip0_2035_12366)">
<path d="M14.7558 7.57136C14.7558 3.52465 11.4753 0.244141 7.42854 0.244141L7.42854 5.73956C8.44022 5.73956 9.26035 6.55968 9.26035 7.57136L14.7558 7.57136Z" fill="#767676"/>
<path d="M14.7558 7.57136C14.7558 3.52465 11.4753 0.244141 7.42854 0.244141L7.42854 2.07595C10.4636 2.07595 12.924 4.53633 12.924 7.57136L14.7558 7.57136Z" fill="#767676"/>
<path d="M11.0922 7.57134C11.0922 5.54799 9.4519 3.90773 7.42854 3.90773L7.42854 2.07593C10.4636 2.07593 12.924 4.53631 12.924 7.57134L11.0922 7.57134Z" fill="#767676"/>
<path d="M12.924 7.57134C12.924 4.53631 10.4636 2.07593 7.42854 2.07593" stroke="white"/>
<path d="M14.7558 7.57136C14.7558 3.52465 11.4753 0.244141 7.42854 0.244141" stroke="white"/>
<path d="M11.0922 7.57133C11.0922 5.54797 9.4519 3.90772 7.42854 3.90771" stroke="white"/>
<path d="M9.26035 7.57131C9.26035 6.55963 8.44022 5.7395 7.42854 5.7395" stroke="white"/>
<path d="M7.42855 0.244069C3.38184 0.244069 0.101334 3.52458 0.101334 7.57129L5.59675 7.57129C5.59675 6.55961 6.41687 5.73948 7.42855 5.73948L7.42855 0.244069Z" fill="#767676"/>
<path d="M7.42855 0.244069C3.38184 0.244069 0.101334 3.52458 0.101334 7.57129L1.93314 7.57129C1.93314 4.53625 4.39352 2.07587 7.42855 2.07587L7.42855 0.244069Z" fill="#767676"/>
<path d="M7.42855 3.90768C5.40519 3.90768 3.76494 5.54793 3.76494 7.57129L1.93314 7.57129C1.93314 4.53626 4.39352 2.07587 7.42855 2.07588L7.42855 3.90768Z" fill="#767676"/>
<path d="M7.42855 2.07588C4.39352 2.07588 1.93314 4.53626 1.93314 7.57129" stroke="white"/>
<path d="M7.42855 0.244069C3.38184 0.244069 0.101334 3.52458 0.101334 7.57129" stroke="white"/>
<path d="M7.42855 3.90768C5.40519 3.90768 3.76494 5.54793 3.76494 7.57129" stroke="white"/>
<path d="M7.42855 5.73948C6.41687 5.73948 5.59674 6.55961 5.59674 7.57129" stroke="white"/>
</g>
<g clip-path="url(#clip1_2035_12366)">
<path d="M14.7153 14.7603C10.7449 14.7603 7.52634 11.5416 7.52634 7.57129L12.9181 7.57129C12.9181 8.56388 13.7227 9.36853 14.7153 9.36853L14.7153 14.7603Z" fill="#767676"/>
<path d="M14.7153 14.7603C10.7449 14.7603 7.52634 11.5416 7.52634 7.57129L9.32358 7.57129C9.32358 10.5491 11.7375 12.963 14.7153 12.963L14.7153 14.7603Z" fill="#767676"/>
<path d="M14.7153 11.1658C12.7301 11.1658 11.1208 9.55647 11.1208 7.57129L9.32358 7.57129C9.32358 10.5491 11.7375 12.963 14.7153 12.963L14.7153 11.1658Z" fill="#767676"/>
<path d="M14.7153 12.963C11.7375 12.963 9.32358 10.5491 9.32358 7.57129" stroke="white"/>
<path d="M14.7153 14.7603C10.7449 14.7603 7.52634 11.5416 7.52634 7.57129" stroke="white"/>
<path d="M14.7153 11.1658C12.7301 11.1658 11.1208 9.55647 11.1208 7.57129" stroke="white"/>
<path d="M14.7153 9.36853C13.7227 9.36853 12.9181 8.56388 12.9181 7.57129" stroke="white"/>
<path d="M7.52633 7.57154C7.52633 3.60118 10.7449 0.382568 14.7153 0.382568L14.7153 5.7743C13.7227 5.7743 12.9181 6.57895 12.9181 7.57154L7.52633 7.57154Z" fill="#767676"/>
<path d="M7.52633 7.57154C7.52633 3.60118 10.7449 0.382568 14.7153 0.382568L14.7153 2.17981C11.7375 2.17981 9.32357 4.59377 9.32357 7.57154L7.52633 7.57154Z" fill="#767676"/>
<path d="M11.1208 7.57141C11.1208 5.58624 12.7301 3.97693 14.7153 3.97693L14.7153 2.17969C11.7375 2.17969 9.32357 4.59365 9.32357 7.57141L11.1208 7.57141Z" fill="#767676"/>
<path d="M9.32357 7.57141C9.32357 4.59365 11.7375 2.17969 14.7153 2.17969" stroke="white"/>
<path d="M7.52633 7.57154C7.52633 3.60118 10.7449 0.382568 14.7153 0.382568" stroke="white"/>
<path d="M11.1208 7.57154C11.1208 5.58636 12.7301 3.97705 14.7153 3.97705" stroke="white"/>
<path d="M12.9181 7.57141C12.9181 6.57882 13.7227 5.77417 14.7153 5.77417" stroke="white"/>
</g>
<g clip-path="url(#clip2_2035_12366)">
<path d="M7.42861 0.24407C3.45825 0.24407 0.239639 3.52458 0.239639 7.57129L5.63137 7.57129C5.63137 6.55961 6.43602 5.73948 7.42861 5.73948L7.42861 0.24407Z" fill="#767676"/>
<path d="M7.42861 0.24407C3.45825 0.24407 0.239639 3.52458 0.239639 7.57129L2.03688 7.57129C2.03688 4.53626 4.45084 2.07587 7.42861 2.07588L7.42861 0.24407Z" fill="#767676"/>
<path d="M7.42861 3.90768C5.44343 3.90768 3.83412 5.54793 3.83412 7.57129L2.03688 7.57129C2.03688 4.53626 4.45084 2.07588 7.42861 2.07588L7.42861 3.90768Z" fill="#767676"/>
<path d="M7.42861 2.07587C4.45084 2.07587 2.03688 4.53626 2.03688 7.57129" stroke="white"/>
<path d="M7.42861 0.244071C3.45825 0.24407 0.239639 3.52458 0.239639 7.57129" stroke="white"/>
<path d="M7.42861 3.90768C5.44343 3.90768 3.83412 5.54793 3.83412 7.57129" stroke="white"/>
<path d="M7.42861 5.73948C6.43602 5.73948 5.63136 6.55961 5.63136 7.57129" stroke="white"/>
</g>
<g clip-path="url(#clip3_2035_12366)">
<path d="M7.47367 7.57153C7.47367 11.5419 4.25506 14.7605 0.284698 14.7605L0.284699 9.36877C1.27729 9.36877 2.08194 8.56412 2.08194 7.57153L7.47367 7.57153Z" fill="#767676"/>
<path d="M7.47367 7.57153C7.47367 11.5419 4.25506 14.7605 0.284698 14.7605L0.284699 12.9633C3.26247 12.9633 5.67643 10.5493 5.67643 7.57153L7.47367 7.57153Z" fill="#767676"/>
<path d="M3.87918 7.57141C3.87918 9.55659 2.26988 11.1659 0.284699 11.1659L0.284698 12.9631C3.26247 12.9631 5.67643 10.5492 5.67643 7.57141L3.87918 7.57141Z" fill="#767676"/>
<path d="M5.67643 7.57141C5.67643 10.5492 3.26247 12.9631 0.284698 12.9631" stroke="white"/>
<path d="M7.47367 7.57153C7.47367 11.5419 4.25506 14.7605 0.284698 14.7605" stroke="white"/>
<path d="M3.87918 7.57153C3.87918 9.55671 2.26988 11.166 0.284698 11.166" stroke="white"/>
<path d="M2.08194 7.57141C2.08194 8.564 1.27729 9.36865 0.284698 9.36865" stroke="white"/>
<path d="M3.87918 7.57142C3.87918 5.58624 2.26988 3.97693 0.284698 3.97693L0.284698 2.17969C3.26247 2.17969 5.67643 4.59365 5.67643 7.57142L3.87918 7.57142Z" fill="#767676"/>
<path d="M5.67643 7.57142C5.67643 4.59365 3.26247 2.17969 0.284698 2.17969" stroke="white"/>
<path d="M2.08194 7.57141C2.08194 6.57882 1.27729 5.77417 0.284698 5.77417" stroke="white"/>
<path d="M0.284719 14.7603C-3.68564 14.7603 -6.90425 11.5416 -6.90425 7.57129L-1.51252 7.57129C-1.51252 8.56388 -0.70787 9.36853 0.284719 9.36853L0.284719 14.7603Z" fill="#767676"/>
<path d="M0.284719 14.7603C-3.68564 14.7603 -6.90425 11.5416 -6.90425 7.57129L-5.10701 7.57129C-5.10701 10.5491 -2.69305 12.963 0.284719 12.963L0.284719 14.7603Z" fill="#767676"/>
<path d="M0.284718 11.1658C-1.70046 11.1658 -3.30977 9.55647 -3.30977 7.57129L-5.10701 7.57129C-5.10701 10.5491 -2.69305 12.963 0.284718 12.963L0.284718 11.1658Z" fill="#767676"/>
<path d="M0.284718 12.963C-2.69305 12.963 -5.10701 10.5491 -5.10701 7.57129" stroke="white"/>
<path d="M0.284719 14.7603C-3.68564 14.7603 -6.90425 11.5416 -6.90425 7.57129" stroke="white"/>
<path d="M0.284716 11.1658C-1.70046 11.1658 -3.30977 9.55647 -3.30977 7.57129" stroke="white"/>
<path d="M0.284715 9.36853C-0.707875 9.36853 -1.51253 8.56388 -1.51253 7.57129" stroke="white"/>
</g>
<defs>
<clipPath id="clip0_2035_12366">
<rect width="7.57146" height="7.57146" fill="white" transform="matrix(-1 -8.74228e-08 -8.74228e-08 1 15 0)"/>
</clipPath>
<clipPath id="clip1_2035_12366">
<rect width="7.4286" height="7.4286" fill="white" transform="translate(7.2867 15) rotate(-90)"/>
</clipPath>
<clipPath id="clip2_2035_12366">
<rect width="7.57146" height="7.4286" fill="white" transform="matrix(-4.37114e-08 1 1 4.37114e-08 0 0)"/>
</clipPath>
<clipPath id="clip3_2035_12366">
<rect width="7.4286" height="7.4286" fill="white" transform="translate(7.7133 15) rotate(-180)"/>
</clipPath>
</defs>
</svg>
